<svg xmlns="http://www.w3.org/2000/svg" version="1.1" xmlns:xlink="http://www.w3.org/1999/xlink" width="507" height="508"><svg width="507" height="508" viewBox="0 0 507 508" fill="none" xmlns="http://www.w3.org/2000/svg">
<path d="M250.768 132.175V294.159" stroke="#35100B" stroke-width="12.9379" stroke-miterlimit="10"></path>
<path d="M194.719 138.059V294.159" stroke="#35100B" stroke-width="12.9379" stroke-miterlimit="10"></path>
<path d="M306.816 138.713V294.16" stroke="#35100B" stroke-width="12.9379" stroke-miterlimit="10"></path>
<path d="M373.942 308.344C373.384 309.879 372.792 311.399 372.094 312.951C371.922 313.337 371.741 313.731 371.561 314.117C371.733 313.723 371.906 313.328 372.07 312.934C372.735 311.415 373.359 309.896 373.942 308.344Z" fill="#42210B"></path>
<path d="M384.807 254.643C384.832 255.054 384.848 255.341 384.856 255.432C384.807 255.424 384.75 255.407 384.7 255.399C384.561 256.401 384.339 258.166 384.035 261.936C384.06 261.558 384.076 261.189 384.093 260.819C384.199 258.963 384.282 257.115 384.331 255.317C384.355 254.586 384.372 253.863 384.38 253.149C384.396 252.237 384.405 251.342 384.405 250.463C384.405 249.503 384.396 248.566 384.38 247.655C384.413 248.032 384.618 251.482 384.75 253.674C384.823 253.781 384.856 253.863 384.856 253.896C384.856 254.142 384.84 254.356 384.807 254.643Z" fill="#42210B"></path>
<path d="M384.331 255.317C384.281 257.115 384.199 258.963 384.093 260.819C384.06 261.402 384.027 261.977 383.986 262.56C383.986 262.65 383.978 262.749 383.969 262.848L383.945 263.168C383.936 263.283 383.928 263.389 383.92 263.504C383.912 263.562 383.912 263.611 383.912 263.669C383.912 263.767 383.904 263.866 383.895 263.964C383.871 264.408 383.838 264.86 383.789 265.311C383.772 265.5 383.756 265.697 383.747 265.902C383.739 266.026 383.731 266.141 383.723 266.264C383.706 266.42 383.698 266.576 383.682 266.732C383.624 267.422 383.567 268.12 383.501 268.81C383.444 269.516 383.37 270.222 383.296 270.92C383.14 272.472 382.975 274.008 382.787 275.511C382.704 276.192 382.614 276.866 382.532 277.531C382.368 278.755 382.195 279.954 382.023 281.12C381.949 281.604 381.867 282.089 381.793 282.565C356.368 278.5 351.645 230.934 321.342 250.89C315.388 254.807 311.66 261.427 306.798 266.403C305.928 265.18 305.016 263.964 304.096 262.749C303.743 262.273 303.382 261.796 303.012 261.32C301.247 259.004 299.465 256.68 297.797 254.29C297.526 253.896 297.264 253.51 297.001 253.116C296.82 252.861 296.648 252.607 296.475 252.344C296.327 252.114 296.18 251.884 296.032 251.654C295.884 251.416 295.736 251.186 295.588 250.948C295.44 250.71 295.293 250.48 295.153 250.241C294.94 249.888 294.742 249.412 294.537 248.878C294.48 248.747 294.43 248.607 294.373 248.468C294.036 247.605 293.658 246.661 293.141 245.889C293.059 245.758 292.969 245.634 292.87 245.511C292.821 245.454 292.772 245.388 292.722 245.339C292.673 245.281 292.624 245.224 292.566 245.166C292.41 245.01 292.246 244.871 292.065 244.756C291.942 244.674 291.819 244.608 291.688 244.55L291.679 244.542C291.655 244.534 291.63 244.526 291.605 244.518C291.499 244.476 291.392 244.444 291.277 244.419C291.343 244.255 291.351 244.025 291.326 243.754V243.737C291.326 243.549 291.302 243.335 291.277 243.13C291.261 243.007 291.252 242.883 291.244 242.768C291.236 242.727 291.228 242.695 291.236 242.653C291.195 242.325 291.195 242.029 291.277 241.832C291.302 241.775 291.918 241.89 292.624 241.586V241.578C293.149 241.348 293.733 240.871 294.127 239.894C297.1 232.626 299.654 225.982 302.668 218.772C311.225 198.323 323.256 158.995 346.883 194.316C357.871 210.757 362.584 250.496 384.331 255.317Z" fill="#669999"></path>
<path d="M384.856 255.432C384.806 255.424 384.749 255.407 384.7 255.399C384.576 255.374 384.453 255.35 384.33 255.317C384.355 254.586 384.371 253.863 384.379 253.149C384.396 252.237 384.404 251.342 384.404 250.463C384.404 249.503 384.396 248.566 384.379 247.655C384.412 248.032 384.617 251.482 384.749 253.674C384.765 254.036 384.79 254.372 384.806 254.643C384.831 255.054 384.847 255.341 384.856 255.432Z" fill="#4E658B"></path>
<path d="M379.854 290.326C378.639 295.434 377.144 299.671 375.329 304.549C362.584 306.019 348.163 305.74 336.534 300.024C326.967 295.319 316.406 283.871 311.963 274.164C321.308 261.607 330.687 246.267 346.233 260.909C357.106 271.15 362.255 286.803 379.854 290.326Z" fill="#669966"></path>
<path d="M372.093 312.951C371.921 313.337 371.74 313.731 371.56 314.117C371.338 314.61 371.108 315.103 370.878 315.587C370.508 316.367 370.139 317.139 369.769 317.911C368.874 319.726 367.938 321.508 366.92 323.299C364.472 327.602 361.015 333.096 357.87 336.873C327.55 341.596 308.662 326.781 295.152 301.322V301.314L306.797 282.565C312.415 287.354 325.39 301.667 331.36 304.55C345.861 311.551 353.238 311.547 369.186 311.662C370.911 311.67 370.837 312.253 372.069 312.935C372.077 312.943 372.085 312.943 372.093 312.951Z" fill="#B5A35F"></path>
<path d="M291.276 244.419C290.283 246.801 288.427 249.223 287.4 251.531C279.697 240.42 263.79 190.251 252.81 185.586C251.2 184.904 248.655 184.617 246.987 184.937C246.889 184.954 246.798 184.978 246.7 185.003C246.61 185.027 246.519 185.052 246.429 185.085C245.862 185.266 245.287 185.561 244.696 185.972C244.606 186.038 244.507 186.103 244.409 186.177C244.212 186.325 244.015 186.481 243.817 186.645C243.62 186.81 243.423 186.99 243.226 187.179C242.241 188.124 241.231 189.331 240.212 190.76C240.007 191.047 239.802 191.335 239.604 191.638C237.116 195.301 234.579 200.196 232.066 205.64C231.893 206.01 231.721 206.388 231.548 206.774C230.719 208.605 229.897 210.486 229.084 212.399C228.789 213.089 228.493 213.795 228.198 214.493C227.787 215.479 227.376 216.472 226.966 217.458C226.572 218.427 226.169 219.404 225.775 220.381C225.184 221.843 224.601 223.305 224.026 224.75C223.829 225.235 223.64 225.711 223.451 226.196C222.695 228.118 221.948 230.015 221.225 231.862C221.036 232.322 220.856 232.782 220.683 233.242C219.419 236.445 218.22 239.475 217.095 242.21C216.939 242.588 216.782 242.957 216.626 243.327C215.362 246.374 214.196 249.001 213.161 251.013C213.038 251.243 212.923 251.457 212.808 251.67C212.438 252.36 212.085 252.96 211.748 253.469C210.213 249.995 209.351 246.975 207.873 243.444C208.832 242.233 209.442 241.487 209.81 240.863C217.5 227.844 231.696 180.404 246.018 176.536C248.819 175.78 249.656 175.69 252.481 176.536C266.894 180.856 283.549 228.684 291.276 241.832C291.194 242.029 291.194 242.325 291.235 242.653C291.227 242.694 291.235 242.727 291.244 242.768C291.252 242.883 291.26 243.006 291.276 243.13C291.301 243.335 291.326 243.548 291.326 243.737V243.754C291.35 244.025 291.342 244.255 291.276 244.419Z" fill="#CF814D"></path>
<path d="M381.793 282.565C381.686 283.206 381.587 283.863 381.481 284.512C381.374 285.16 381.267 285.817 381.144 286.45C380.848 287.961 380.158 289.053 379.855 290.326C362.256 286.803 357.106 271.15 346.233 260.909C330.687 246.267 321.309 261.608 311.963 274.164H311.323C310.263 271.487 308.44 268.719 306.798 266.404C311.66 261.427 315.388 254.808 321.342 250.891C351.645 230.935 356.367 278.5 381.793 282.565Z" fill="#6B8F53"></path>
<path d="M357.87 336.873C357.041 337.875 353.058 343.131 352.697 343.345C352.294 343.575 351.859 343.878 351.407 343.985C341.142 346.416 323.937 342.466 314.879 336.873C309.689 333.67 290.833 313.747 290.628 308.434C290.62 308.229 290.595 307.982 290.628 307.785C290.792 306.8 294.406 303.425 294.512 301.322V301.314H295.153V301.322C308.662 326.78 327.551 341.595 357.87 336.873Z" fill="#4E758B"></path>
<path d="M203.681 252.058L194.097 272.13C193.58 271.415 190.684 265.64 190.175 264.958C189.928 264.613 189.674 264.276 189.427 263.948C189.173 263.611 188.926 263.291 188.68 262.962C188.089 262.182 187.506 261.435 186.931 260.712C183.671 256.598 180.673 253.272 177.889 250.628C177.643 250.398 177.396 250.168 177.158 249.946C176.912 249.716 176.674 249.503 176.436 249.289C176.123 249.01 175.803 248.731 175.491 248.468C175.179 248.205 174.867 247.95 174.563 247.704C174.259 247.458 173.964 247.228 173.66 246.998C173.512 246.875 173.356 246.76 173.208 246.661C173.06 246.546 172.913 246.439 172.765 246.333C172.469 246.119 172.173 245.914 171.886 245.725C171.598 245.528 171.311 245.347 171.024 245.175C170.884 245.076 170.736 244.994 170.597 244.912C169.997 244.551 169.406 244.222 168.823 243.943C168.675 243.861 168.527 243.795 168.379 243.729C168.125 243.606 167.879 243.491 167.632 243.393C167.402 243.294 167.172 243.204 166.942 243.122C166.926 243.114 166.909 243.105 166.893 243.105C166.786 243.056 166.663 243.015 166.556 242.982C165.916 242.752 165.283 242.572 164.668 242.44C164.421 242.383 164.167 242.333 163.928 242.301C163.583 242.235 163.238 242.194 162.894 242.169C162.795 242.153 162.696 242.153 162.598 242.144C162.442 242.136 162.294 242.128 162.146 242.128C161.727 242.112 161.317 242.12 160.906 242.153C160.726 242.161 160.553 242.177 160.372 242.202C160.274 242.21 160.183 242.227 160.085 242.243C159.88 242.268 159.666 242.301 159.461 242.35C158.96 242.448 158.459 242.58 157.974 242.736C157.432 242.908 156.899 243.122 156.373 243.376C156.192 243.459 156.003 243.549 155.823 243.647C155.625 243.746 155.428 243.853 155.24 243.968C154.969 244.124 154.706 244.288 154.443 244.46C154.221 244.6 154.008 244.748 153.786 244.904C153.556 245.068 153.326 245.241 153.096 245.421C152.653 245.766 152.218 246.127 151.782 246.514C151.569 246.702 151.355 246.9 151.142 247.113C150.928 247.31 150.715 247.524 150.501 247.737C149.631 248.608 148.777 249.568 147.922 250.595C147.709 250.85 147.504 251.112 147.29 251.375C146.978 251.769 146.658 252.164 146.354 252.574C146.288 252.656 146.222 252.73 146.165 252.812C145.853 253.223 145.533 253.65 145.229 254.077C142.018 258.43 138.856 263.447 135.341 268.145C135.029 268.564 134.709 268.982 134.388 269.401C134.159 269.697 133.929 270.001 133.691 270.296C133.461 270.584 133.231 270.871 133.001 271.159C132.5 271.783 131.982 272.399 131.448 272.998C131.276 273.204 131.095 273.401 130.915 273.598C130.373 274.214 129.806 274.813 129.231 275.396C128.853 275.782 128.467 276.16 128.082 276.53C127.696 276.899 127.301 277.261 126.899 277.614C126.365 278.082 125.823 278.533 125.273 278.969C124.714 279.404 124.156 279.815 123.573 280.217C122.711 280.808 121.824 281.358 120.904 281.851C120.296 282.188 119.672 282.492 119.032 282.771C118.711 282.911 118.391 283.05 118.062 283.173C117.841 283.264 117.619 283.346 117.397 283.428C117.225 283.485 117.044 283.551 116.864 283.609C116.601 283.699 116.338 283.781 116.067 283.863C115.738 283.954 115.188 283.814 114.769 283.863C114.474 282.377 114.137 282.64 114.129 282.566C112.388 273.146 111.427 263.529 111.46 253.937C111.46 252.862 111.476 251.794 111.509 250.718C111.517 250.34 111.526 249.971 111.542 249.593C112.018 249.495 112.495 249.388 112.954 249.273C139.989 242.218 138.856 191.639 157.744 182.244C175.91 173.202 179.844 197.675 189.608 207.201C188.803 207.48 187.711 207.374 187.506 207.571C186.947 208.105 188.302 212.605 190.388 218.51C190.511 218.871 190.643 219.24 190.774 219.61C190.938 220.07 191.103 220.53 191.267 220.998C191.973 222.952 192.729 225.022 193.525 227.124C193.722 227.642 193.911 228.167 194.108 228.685V228.693C194.125 228.75 194.149 228.8 194.174 228.849C194.371 229.374 194.568 229.9 194.757 230.426C195.192 231.584 195.636 232.741 196.071 233.883C196.515 235.033 196.942 236.158 197.352 237.25C197.664 238.079 197.968 238.884 198.272 239.673C198.379 239.96 198.494 240.239 198.601 240.518C198.88 241.266 199.159 241.997 199.414 242.687C199.496 242.925 199.586 243.171 199.676 243.401C199.849 243.853 200.013 244.288 200.169 244.715C200.317 245.134 200.465 245.536 200.613 245.93C200.687 246.128 200.752 246.316 200.818 246.505C200.957 246.875 201.089 247.236 201.204 247.573C201.5 248.427 201.738 249.15 201.902 249.7C201.968 249.905 203.639 251.902 203.681 252.058Z" fill="#CE6C4E"></path>
<path d="M205.285 301.314V301.322C205.088 301.675 204.842 303.556 204.637 303.901C190.906 327.84 174.818 346.786 143.866 340.109C136.86 332.069 131.481 323.66 126.406 314.248C154.328 316.646 172.904 305.303 192.359 285.801L205.285 301.314Z" fill="#E5AB5F"></path>
<path d="M210.122 311.665C210.122 311.665 210.122 311.664 210.121 311.664C210.121 311.662 210.12 311.66 210.119 311.658C210.117 311.653 210.114 311.649 210.112 311.645C210.102 311.626 210.092 311.609 210.081 311.591C210.071 311.574 210.06 311.557 210.051 311.54C210.041 311.522 210.032 311.503 210.024 311.484C210.002 311.433 209.981 311.381 209.961 311.329C209.951 311.304 209.941 311.278 209.93 311.253C209.929 311.25 209.928 311.247 209.926 311.243L209.925 311.241C209.924 311.235 209.92 311.229 209.918 311.224C209.912 311.211 209.907 311.199 209.901 311.187C209.878 311.137 209.852 311.088 209.826 311.039C209.799 310.989 209.772 310.939 209.745 310.889C209.717 310.839 209.69 310.789 209.661 310.739C209.649 310.717 209.637 310.695 209.622 310.674C209.608 310.653 209.593 310.633 209.579 310.611C209.551 310.569 209.532 310.523 209.513 310.476C209.512 310.473 209.51 310.471 209.509 310.468C209.509 310.466 209.505 310.457 209.507 310.463C209.51 310.469 209.506 310.46 209.506 310.459C209.505 310.457 209.504 310.454 209.502 310.452C209.498 310.441 209.493 310.43 209.487 310.42C209.482 310.409 209.476 310.4 209.47 310.39C209.467 310.385 209.464 310.381 209.46 310.376C209.46 310.375 209.459 310.374 209.458 310.373C209.463 310.381 209.461 310.377 209.46 310.375C209.458 310.373 209.456 310.371 209.455 310.369C209.441 310.353 209.443 310.333 209.455 310.317L204.636 303.901C190.905 327.84 174.817 346.785 143.865 340.109C146.534 343.172 149.335 345.734 152.266 348.51C180.96 351.301 196.153 333.417 210.127 311.679C210.125 311.675 210.124 311.67 210.122 311.665Z" fill="#6B8F53"></path>
<path d="M191.037 281.768C190.751 280.997 190.489 279.991 190.273 279.199C190.109 278.599 189.641 277.629 189.291 277.111C175.693 300.745 149.958 309.774 123.238 307.633C124.32 309.778 125.357 311.966 126.466 314.096C154.652 317.258 176.018 305.027 192.842 285.118C191.878 283.925 191.569 283.201 191.037 281.768Z" fill="#BA5446"></path>
<path d="M198.174 277.391C197.008 275.634 195.128 273.359 193.905 271.626C192.316 273.164 190.671 275.49 189.231 277.263C189.485 278.414 190.306 279.95 190.753 281.287C191.249 282.767 191.927 284.236 192.902 285.466C194.705 283.302 196.462 281.042 198.174 278.689C198.064 278.43 198.202 278.049 198.198 277.753C198.212 277.597 198.216 277.5 198.174 277.391Z" fill="#AA522A"></path>
<path d="M287.4 251.531C284.101 259.67 280.484 271.185 277.053 270.931C277.291 274.025 281.746 276.017 282.225 279.336H282.872C285.007 274.401 289.664 267.973 292.57 261.233C291.27 258.061 288.893 254.611 287.4 251.531Z" fill="#418953"></path>
<path d="M287.496 251.727C288.899 254.742 291.156 258.137 292.538 261.157C293.885 257.855 295.774 254.945 296.031 251.654C295.131 250.157 292.222 244.939 291.188 243.125C289.985 244.445 288.568 248.523 287.317 251.531C287.382 251.564 287.455 251.639 287.496 251.727Z" fill="#317753"></path>
<path d="M301.627 274.172C302.365 272.762 303.177 271.433 304.118 270.133C304.655 269.39 305.187 268.641 305.741 267.911C306.084 267.46 306.553 267.021 306.879 266.526C306.851 266.486 306.822 266.445 306.794 266.405C302.978 261.043 299.762 257.68 296.359 252.019L292.57 261.233C295.126 265.851 298.561 269.906 301.622 274.164C301.624 274.166 301.625 274.169 301.627 274.172Z" fill="#418953"></path>
<path d="M306.879 266.526C306.628 266.845 306.232 267.298 305.98 267.618C305.403 268.35 304.873 269.091 304.325 269.845C303.763 270.621 303.209 271.447 302.704 272.262C302.271 272.962 301.992 273.438 301.627 274.172C302.912 276.243 304.375 281.093 306.798 282.28C306.997 281.375 310.852 275.66 311.32 274.164C310.384 271.79 308.362 268.661 306.879 266.526Z" fill="#556D21"></path>
<path d="M204.779 255.282C205.863 257.962 207.083 260.945 207.743 263.789C208.922 261.666 210.564 255.666 211.749 253.469C211.009 251.082 209.162 246.176 207.873 243.444C206.827 245.78 203.792 249.159 202.92 251.615C202.956 251.649 204.754 255.224 204.779 255.282Z" fill="#C85A46"></path>
<path d="M206.761 259.591C206.385 258.086 203.511 252.96 203.115 251.471C202.698 252.04 201.68 255.053 201.375 255.675C199.756 258.972 195.635 269.775 193.904 271.626C194.973 274.015 197.04 275.897 198.43 278.092C202.163 273.401 205.142 268.543 207.977 263.488C207.444 262.237 207.172 260.883 206.761 259.591Z" fill="#D56F43"></path>
<path d="M336.535 300.025C336.485 300.68 336.838 299.69 336.521 300.113C336.801 299.705 336.44 300.699 336.535 300.025C326.967 295.319 316.406 283.871 311.963 274.164H311.323C310.649 276.343 306.837 280.798 306.651 282.404C310.301 286.783 325.391 301.667 331.361 304.55C332.116 303.912 330.695 304.81 331.481 304.451C330.643 304.861 332.033 303.983 331.361 304.55C345.864 311.546 353.238 311.546 369.187 311.661C370.917 311.669 370.855 312.268 372.094 312.951C373.362 310.143 374.261 307.409 375.33 304.55C362.584 306.02 348.163 305.74 336.535 300.025Z" fill="#6B8F53"></path>
<path d="M304.831 279.68C304.738 280.102 306.697 282.156 306.793 282.569L295.156 301.318H294.509C294.6 299.505 291.628 295.544 290.63 293.56C290.417 293.137 290.203 292.685 289.983 292.267L301.621 274.164C303.207 276.37 303.159 276.538 304.831 279.68Z" fill="#557D53"></path>
<path d="M287.398 251.535C284.791 257.399 282.877 263.712 279.639 269.315C279.028 270.372 278.777 270.741 277.7 272.871C271.976 263.728 260.161 242.068 247.636 243.776C238.168 245.068 226.368 265.218 221.451 272.871C218.312 267.135 214.432 261.393 211.753 255.414C211.568 255.002 211.937 253.891 211.753 253.474C218.902 242.641 235.027 187.241 246.989 184.941C248.656 184.621 251.199 184.904 252.808 185.588C263.791 190.253 279.698 240.421 287.398 251.535Z" fill="#E5AB5F"></path>
<path d="M294.51 301.318C294.404 303.427 290.794 306.797 290.63 307.784C289.706 307.031 285.527 301.106 285.458 300.672C285.4 300.307 285.381 299.72 285.458 299.379C285.544 298.999 289.762 294.201 290.63 293.56C291.629 295.544 294.6 299.504 294.51 301.318Z" fill="#317767"></path>
<path d="M191.709 267.052C192.232 267.7 193.459 270.135 193.904 271.626C192.572 272.902 190.092 276.073 189.123 277.396C181.938 269.349 173.309 248.913 160.352 251.535C149.166 253.798 133.468 291.059 117.357 292.267C116.575 289.703 114.703 286.21 116.064 283.862C147.225 274.612 147.872 206.241 191.709 267.052Z" fill="#BA5446"></path>
<path d="M209.112 295.499C209.299 295.805 208.979 295.183 209.167 295.499C207.428 297.046 205.76 301.911 204.637 303.901L192.356 285.801C194.237 283.403 195.598 280.464 198.175 278.689C201.313 283.476 206.242 290.8 209.112 295.499Z" fill="#CF8F4D"></path>
<path d="M214.993 302.294C215.172 302.623 214.857 302.243 214.671 302.599C214.471 302.98 210.556 311.719 210.127 311.68L204.637 303.901C204.836 303.553 205.542 301.854 205.731 301.491C206.765 299.499 207.477 297.239 209.166 295.5C210.02 296.941 214.476 301.347 214.993 302.294Z" fill="#317753"></path>
<path d="M290.63 307.784C289.705 307.031 285.526 301.106 285.458 300.672C279.707 309.469 274.663 318.531 268.648 327.18C264.291 333.444 260.344 343.281 251.191 343.99C250.98 344.006 250.757 343.995 250.544 343.99C249.689 343.971 248.171 343.357 247.314 343.344C231.695 336.001 224.928 314.847 214.335 301.963C213.243 304.008 210.697 309.247 209.539 310.347C209.736 310.791 210.13 311.284 210.188 311.727C218.878 323.399 230.65 348.728 246.516 351.549L246.515 351.553C246.533 351.554 246.562 351.556 246.582 351.558C247.037 351.637 247.494 351.705 247.956 351.746V351.658C248.92 351.719 250.028 351.772 250.545 351.748C270.574 350.844 280.756 322.507 290.63 308.43C290.623 308.226 290.597 307.981 290.63 307.784Z" fill="url(#paint0_linear_256_2)"></path>
<path d="M189.123 277.396C188.987 277.583 188.079 280.474 187.184 281.599C170.578 302.472 149.73 309.928 123.176 307.784C122.574 306.518 121.765 305.112 121.237 303.905C119.97 300.009 118.553 296.183 117.357 292.267C133.468 291.059 149.166 253.798 160.352 251.535C173.309 248.913 181.938 269.349 189.123 277.396Z" fill="#CF8F4D"></path>
<path d="M216.925 280.629C214.308 284.873 212.203 291.584 209.132 295.531C206.262 290.831 201.313 283.476 198.175 278.689C198.045 278.49 198.306 277.593 198.175 277.396C201.291 272.696 204.471 265.809 207.224 260.896L216.925 280.629Z" fill="#E59D5F"></path>
<path d="M285.458 299.379C282.767 295.691 279.994 291.676 277.7 287.741C270.693 296.493 264.188 309.013 252.275 310.849C251.967 310.942 251.851 311.102 251.191 311.016C249.91 310.961 248.591 311.098 247.312 311.016C247.1 311.003 246.872 311.05 246.666 311.016C236.281 309.343 227.775 297.093 221.451 289.681C219.054 293.732 216.986 298.056 214.339 301.965C214.388 302.114 214.499 302.325 214.671 302.599C225.262 315.488 231.697 336.006 247.312 343.343L248.348 343.736C249.252 343.974 249.689 343.971 250.545 343.99C250.757 343.995 250.981 344.006 251.192 343.99C260.345 343.281 264.291 333.444 268.648 327.18C274.664 318.531 279.707 309.469 285.458 300.672C285.4 300.307 285.381 299.72 285.458 299.379Z" fill="#6B8F53"></path>
<path d="M277.053 270.931C277.107 271.018 277.32 272.275 277.7 272.871C277.829 274.71 273.278 278.956 273.174 279.336C266.379 274.233 257.963 250.705 248.282 252.828C243.204 253.941 229.281 277.007 226.623 282.569C225.086 280.141 222.825 277.265 221.451 274.81C221.263 274.475 221.639 273.215 221.451 272.871C226.368 265.219 238.168 245.068 247.636 243.776C260.161 242.068 271.33 261.789 277.053 270.931Z" fill="#6B8F53"></path>
<path d="M301.622 274.164L289.984 292.267C288.564 289.564 282.753 281.733 282.872 279.336C282.963 277.494 291.24 264.475 292.57 261.233C295.126 265.851 298.561 269.905 301.622 274.164Z" fill="#778C3E"></path>
<path d="M289.984 292.267C290.203 292.685 290.418 293.137 290.63 293.56C289.762 294.201 285.544 298.999 285.458 299.379C282.767 295.691 279.994 291.676 277.7 287.741C277.57 287.519 277.829 286.674 277.7 286.448L282.225 279.336H282.872C282.753 281.733 288.564 289.564 289.984 292.267Z" fill="#6B8553"></path>
<path d="M282.225 279.336L277.699 286.448C277.221 285.617 273.405 282.272 273.173 281.276C273.082 280.88 273.074 279.7 273.173 279.336C273.277 278.955 277.828 274.71 277.699 272.871C278.914 274.778 281.848 276.699 282.225 279.336Z" fill="#317753"></path>
<path d="M221.45 272.871C221.639 273.215 221.262 274.474 221.45 274.81C219.217 276.088 218.198 278.565 216.925 280.629L208.07 262.792C209.164 260.84 210.461 256.494 211.752 253.474C214.431 259.453 218.311 267.135 221.45 272.871Z" fill="#E1852F"></path>
<path d="M219.759 285.585C219.295 284.692 218.661 283.669 218.216 282.767C217.909 282.146 217.368 281.246 216.854 280.748C214.436 284.827 211.64 290.14 211.68 290.074C211.554 290.404 208.979 295.183 209.166 295.5C210.02 296.941 214.426 301.643 214.62 302.704C217.154 298.961 219.18 293.581 221.45 289.681C220.985 288.135 220.488 286.991 219.759 285.585Z" fill="#6B8D53"></path>
<path d="M226.623 282.569C225.086 280.141 222.825 277.265 221.451 274.81C219.217 276.088 218.198 278.565 216.925 280.629C216.901 280.668 216.878 280.709 216.854 280.748C217.411 281.24 217.782 281.9 218.113 282.564C218.559 283.459 219.082 284.305 219.552 285.187C220.282 286.557 220.699 288.322 221.451 289.681C222.563 287.585 224.229 286.039 226.623 283.862C226.493 283.661 226.754 282.775 226.623 282.569Z" fill="#317753"></path>
<path d="M277.699 286.448C277.221 285.617 273.405 282.272 273.173 281.276C268.462 287.491 259.241 302.475 251.191 303.905C250.268 304.068 247.609 304.058 246.665 303.905C240.066 302.835 230.25 288.172 226.622 282.569C224.633 284.897 222.643 287.664 221.45 289.681C227.775 297.093 236.28 309.343 246.665 311.016C246.872 311.05 247.099 311.003 247.312 311.016C248.59 311.098 249.909 310.961 251.191 311.016C251.866 310.999 252.877 311.09 252.992 310.725C264.905 308.889 270.692 296.493 277.699 287.741C277.569 287.519 277.829 286.674 277.699 286.448Z" fill="#418953"></path>
<path d="M273.174 279.336C273.074 279.7 273.082 280.881 273.174 281.276C268.462 287.491 259.242 302.475 251.192 303.905C250.268 304.069 247.61 304.058 246.666 303.905C240.067 302.835 230.74 288.987 227.112 283.383C226.982 283.182 226.754 282.775 226.623 282.569C229.281 277.007 243.204 253.941 248.282 252.828C257.963 250.705 266.379 274.233 273.174 279.336Z" fill="#ADAB5F"></path>
<path d="M111.548 249.528C111.451 249.569 124.183 237.154 126.406 234.095C137.794 218.429 145.426 175.239 168.248 178.359C185.34 183.839 198.178 227.172 207.873 243.444C206.89 245.955 207.468 244.148 203.025 251.584C194.097 236.039 184.432 204.994 174.284 192.115C145.177 166.122 152.17 233.96 111.459 254.63" fill="#BA5446"></path>
<path d="M384.8 255.396C384.52 257.902 383.873 263.689 383.667 267.763C335.669 204.026 341.393 126.708 296.711 252.452C296.659 252.597 296.515 252.549 296.442 252.414C294.718 249.204 290.971 243.833 291.221 243.332C298.657 228.439 312.167 172.409 335.947 177.265C356.837 187.939 366.717 238.783 384.8 255.396Z" fill="#4E658B"></path>
<path d="M446.08 251.37C446.08 206.817 423.31 172.524 386.936 149.6C378.22 144.107 372.66 134.544 372.988 124.246C373.378 112.043 381.263 100.455 404.1 99.23C415.26 98.63 423.25 80.47 406.1 74.04C386.03 66.51 335.14 79.1645 338.79 132.174C338.79 132.215 338.975 132.134 338.975 132.174H282.49V108.72C282.49 96.05 285.95 85.68 300.36 81.07C310.73 77.61 332.03 74.74 342.4 74.16V54H162.68V74.16C173.05 74.74 194.37 79.92 204.74 83.96C219.13 89.72 222.59 98.93 222.59 111.61L219.527 132.174H165.846C169.496 79.1645 118.61 66.51 98.54 74.04C81.39 80.47 89.38 98.63 100.54 99.23C123.271 100.449 131.186 111.937 131.643 124.078C132.03 134.355 126.502 143.921 117.804 149.409C81.5583 172.279 59 206.595 59 251.37C59 329.11 130.7 379.98 222.59 390.07V400.76C222.59 413.43 218.56 423.22 204.74 428.41C197.24 430.71 173.05 432.44 162.68 433.02V453.17H342.4V433.02C332.03 432.44 307.27 428.41 300.36 425.52C287.1 419.19 282.49 409.98 282.49 397.31V390.04C374.22 379.87 446.08 329.31 446.08 251.37ZM252.31 374.2C164.14 372.77 129.16 319.44 126.46 261.05C126.34 258.57 126.28 256.08 126.28 253.58C126.28 224.56 125.595 202.843 147.455 180.504C163.594 164.012 165.846 149.245 165.846 149.245H219.527C219.527 149.245 250.527 149.631 282.226 149.245C299.586 149.033 339.957 149.245 339.957 149.245C339.957 149.245 338.132 163.261 348.582 178.199C364.642 201.154 378.33 224.18 378.33 253.58C378.33 256.05 378.27 258.51 378.15 260.96C375.49 319.38 340.53 372.77 252.31 374.2Z" fill="#35100B"></path>
<defs>
<linearGradient id="SvgjsLinearGradient1037" x1="209.539" y1="326.213" x2="290.63" y2="326.213" gradientUnits="userSpaceOnUse">
<stop stop-color="#476534"></stop>
<stop offset="1" stop-color="#4D819F"></stop>
</linearGradient>
</defs>
</svg><style>@media (prefers-color-scheme: light) { :root { filter: contrast(1) brightness(0.9); } }
@media (prefers-color-scheme: dark) { :root { filter: contrast(1) brightness(1.2); } }
</style></svg>