<?xml version="1.0" encoding="UTF-8"?>
<svg id="Layer_1" data-name="Layer 1" xmlns="http://www.w3.org/2000/svg" viewBox="0 0 387.08 399.17">
  <defs>
    <style>
      .cls-1 {
        fill: #e1852f;
      }

      .cls-2 {
        fill: #4e658b;
      }

      .cls-3 {
        fill: #aa522a;
      }

      .cls-4 {
        fill: #ba5446;
      }

      .cls-5 {
        fill: #cf8f4d;
      }

      .cls-6 {
        fill: #3f8153;
      }

      .cls-7 {
        fill: #c85a46;
      }

      .cls-8 {
        fill: #d56f43;
      }

      .cls-9 {
        fill: #557d53;
      }

      .cls-10 {
        fill: #418953;
      }

      .cls-11 {
        fill: #e5ab5f;
      }

      .cls-12 {
        fill: #699;
      }

      .cls-13 {
        fill: #6b8d53;
      }

      .cls-14 {
        fill: #cf814d;
      }

      .cls-15 {
        fill: none;
        stroke: #35100b;
        stroke-miterlimit: 10;
        stroke-width: 12.94px;
      }

      .cls-16 {
        fill: #696;
      }

      .cls-17 {
        fill: #b5a35f;
      }

      .cls-18 {
        fill: #778c3e;
      }

      .cls-19 {
        fill: #adab5f;
      }

      .cls-20 {
        fill: #477953;
      }

      .cls-21 {
        fill: #42210b;
      }

      .cls-22 {
        fill: #6b8553;
      }

      .cls-23 {
        fill: #6b8f53;
      }

      .cls-24 {
        fill: #4e758b;
      }

      .cls-25 {
        fill: #ce6c4e;
      }

      .cls-26 {
        fill: #35100b;
      }

      .cls-27 {
        fill: #317753;
      }

      .cls-28 {
        fill: #e59d5f;
      }
    </style>
  </defs>
  <path class="cls-15" d="M191.77,78.18v161.98"/>
  <path class="cls-15" d="M135.72,84.06v156.1"/>
  <path class="cls-15" d="M247.82,84.71v155.45"/>
  <path class="cls-21" d="M314.94,254.34c-.56,1.54-1.15,3.05-1.85,4.61-.17.39-.35.78-.53,1.17.17-.39.35-.79.51-1.18.66-1.52,1.29-3.04,1.87-4.59Z"/>
  <path class="cls-21" d="M325.81,200.64c.02.41.04.7.05.79-.05,0-.11-.03-.16-.03-.14,1-.36,2.77-.67,6.54.02-.38.04-.75.06-1.12.11-1.86.19-3.7.24-5.5.02-.73.04-1.45.05-2.17.02-.91.02-1.81.02-2.69,0-.96,0-1.9-.02-2.81.03.38.24,3.83.37,6.02.07.11.11.19.11.22,0,.25-.02.46-.05.75Z"/>
  <path class="cls-12" d="M325.33,201.32c-.05,1.8-.13,3.65-.24,5.5-.03.58-.07,1.16-.11,1.74,0,.09,0,.19-.02.29l-.02.32c0,.11-.02.22-.02.34,0,.06,0,.11,0,.17,0,.1,0,.2-.02.29-.02.44-.06.9-.11,1.35-.02.19-.03.39-.04.59,0,.12-.02.24-.02.36-.02.16-.02.31-.04.47-.06.69-.12,1.39-.18,2.08-.06.71-.13,1.41-.21,2.11-.16,1.55-.32,3.09-.51,4.59-.08.68-.17,1.36-.25,2.02-.16,1.22-.34,2.42-.51,3.59-.07.48-.16.97-.23,1.45-25.42-4.07-30.15-51.63-60.45-31.68-5.95,3.92-9.68,10.54-14.54,15.51-.87-1.22-1.78-2.44-2.7-3.65-.35-.48-.71-.95-1.08-1.43-1.76-2.32-3.55-4.64-5.21-7.03-.27-.39-.53-.78-.8-1.17-.18-.26-.35-.51-.53-.77-.15-.23-.3-.46-.44-.69-.15-.24-.3-.47-.44-.71-.15-.24-.3-.47-.43-.71-.21-.35-.41-.83-.62-1.36-.06-.13-.11-.27-.16-.41-.34-.86-.71-1.81-1.23-2.58-.08-.13-.17-.26-.27-.38-.05-.06-.1-.12-.15-.17-.05-.06-.1-.12-.16-.17-.16-.16-.32-.29-.5-.41-.12-.08-.25-.15-.38-.21h0s-.05-.02-.07-.03c-.11-.04-.21-.07-.33-.1.07-.16.07-.39.05-.67v-.02c0-.19-.02-.4-.05-.61-.02-.12-.02-.25-.03-.36,0-.04-.02-.07,0-.12-.04-.33-.04-.62.04-.82.02-.06.64.06,1.35-.25h0c.52-.24,1.11-.71,1.5-1.69,2.97-7.27,5.53-13.91,8.54-21.12,8.56-20.45,20.59-59.78,44.21-24.46,10.99,16.44,15.7,56.18,37.45,61Z"/>
  <path class="cls-2" d="M325.86,201.43s-.11-.03-.16-.03c-.12-.03-.25-.05-.37-.08.03-.73.04-1.45.05-2.17.02-.91.02-1.81.02-2.69,0-.96,0-1.9-.02-2.81.03.38.24,3.83.37,6.02.02.36.04.7.06.97.02.41.04.7.05.79Z"/>
  <path class="cls-16" d="M320.85,236.33c-1.21,5.11-2.71,9.35-4.52,14.22-12.74,1.47-27.17,1.19-38.8-4.53-9.57-4.7-20.13-16.15-24.57-25.86,9.35-12.56,18.72-27.9,34.27-13.26,10.87,10.24,16.02,25.89,33.62,29.42Z"/>
  <path class="cls-17" d="M313.09,258.95c-.17.39-.35.78-.53,1.17-.22.49-.45.99-.68,1.47-.37.78-.74,1.55-1.11,2.32-.9,1.82-1.83,3.6-2.85,5.39-2.45,4.3-5.9,9.8-9.05,13.57-30.32,4.72-49.21-10.09-62.72-35.55h0s11.64-18.76,11.64-18.76c5.62,4.79,18.59,19.1,24.56,21.98,14.5,7,21.88,7,37.83,7.11,1.73,0,1.65.59,2.88,1.27,0,0,.02,0,.02.02Z"/>
  <path class="cls-14" d="M232.28,190.42c-.99,2.38-2.85,4.8-3.88,7.11-7.7-11.11-23.61-61.28-34.59-65.95-1.61-.68-4.15-.97-5.82-.65-.1.02-.19.04-.29.07-.09.02-.18.05-.27.08-.57.18-1.14.48-1.73.89-.09.07-.19.13-.29.21-.2.15-.39.3-.59.47-.2.16-.39.35-.59.53-.99.94-1.99,2.15-3.01,3.58-.21.29-.41.58-.61.88-2.49,3.66-5.03,8.56-7.54,14-.17.37-.35.75-.52,1.13-.83,1.83-1.65,3.71-2.46,5.62-.29.69-.59,1.4-.89,2.09-.41.99-.82,1.98-1.23,2.96-.39.97-.8,1.95-1.19,2.92-.59,1.46-1.17,2.92-1.75,4.37-.2.49-.39.96-.57,1.45-.76,1.92-1.5,3.82-2.23,5.67-.19.46-.37.92-.54,1.38-1.26,3.2-2.46,6.23-3.59,8.97-.16.38-.31.75-.47,1.12-1.26,3.05-2.43,5.67-3.47,7.69-.12.23-.24.44-.35.66-.37.69-.72,1.29-1.06,1.8-1.54-3.47-2.4-6.49-3.88-10.02.96-1.21,1.57-1.96,1.94-2.58,7.69-13.02,21.89-60.46,36.21-64.33,2.8-.76,3.64-.85,6.46,0,14.41,4.32,31.07,52.15,38.79,65.3-.08.2-.08.49-.04.82,0,.04,0,.07,0,.12,0,.11.02.24.03.36.02.21.05.42.05.61v.02c.02.27.02.5-.05.67Z"/>
  <path class="cls-23" d="M322.79,228.57c-.11.64-.21,1.3-.31,1.95-.11.65-.21,1.3-.34,1.94-.3,1.51-.99,2.6-1.29,3.88-17.6-3.52-22.75-19.18-33.62-29.42-15.55-14.64-24.92.7-34.27,13.26h-.64c-1.06-2.68-2.88-5.45-4.52-7.76,4.86-4.98,8.59-11.6,14.54-15.51,30.3-19.96,35.02,27.61,60.45,31.67Z"/>
  <path class="cls-24" d="M298.87,282.87c-.83,1-4.81,6.26-5.17,6.47-.4.23-.84.53-1.29.64-10.27,2.43-27.47-1.52-36.53-7.11-5.19-3.2-24.05-23.13-24.25-28.44,0-.2-.03-.45,0-.65.16-.99,3.78-4.36,3.88-6.46h0s.64,0,.64,0h0c13.51,25.47,32.4,40.28,62.72,35.56Z"/>
  <path class="cls-25" d="M144.68,198.06l-9.58,20.07c-.52-.71-3.41-6.49-3.92-7.17-.25-.35-.5-.68-.75-1.01-.25-.34-.5-.66-.75-.99-.59-.78-1.17-1.53-1.75-2.25-3.26-4.11-6.26-7.44-9.04-10.08-.25-.23-.49-.46-.73-.68-.25-.23-.48-.44-.72-.66-.31-.28-.63-.56-.95-.82s-.62-.52-.93-.76-.6-.48-.9-.71c-.15-.12-.3-.24-.45-.34-.15-.11-.29-.22-.44-.33-.3-.21-.59-.42-.88-.61-.29-.2-.57-.38-.86-.55-.14-.1-.29-.18-.43-.26-.6-.36-1.19-.69-1.77-.97-.15-.08-.3-.15-.44-.21-.25-.12-.5-.24-.75-.34-.23-.1-.46-.19-.69-.27-.02,0-.03-.02-.05-.02-.11-.05-.23-.09-.34-.12-.64-.23-1.27-.41-1.89-.54-.25-.06-.5-.11-.74-.14-.35-.07-.69-.11-1.03-.13-.1-.02-.2-.02-.3-.03-.16,0-.3-.02-.45-.02-.42-.02-.83,0-1.24.02-.18,0-.35.02-.53.05-.1,0-.19.03-.29.04-.21.03-.42.06-.62.11-.5.1-1,.23-1.49.39-.54.17-1.07.39-1.6.64-.18.08-.37.17-.55.27-.2.1-.4.21-.58.32-.27.16-.53.32-.8.49-.22.14-.43.29-.66.44-.23.16-.46.34-.69.52-.44.35-.88.71-1.31,1.09-.21.19-.43.39-.64.6-.21.2-.43.41-.64.62-.87.87-1.72,1.83-2.58,2.86-.21.26-.42.52-.63.78-.31.39-.63.79-.94,1.2-.07.08-.13.16-.19.24-.31.41-.63.84-.94,1.26-3.21,4.35-6.37,9.37-9.89,14.07-.31.42-.63.84-.95,1.26-.23.3-.46.6-.7.89-.23.29-.46.58-.69.86-.5.62-1.02,1.24-1.55,1.84-.17.21-.35.4-.53.6-.54.62-1.11,1.21-1.68,1.8-.38.39-.76.76-1.15,1.13-.39.37-.78.73-1.18,1.08-.53.47-1.08.92-1.63,1.35-.56.43-1.12.85-1.7,1.25-.86.59-1.75,1.14-2.67,1.63-.61.34-1.23.64-1.87.92-.32.14-.64.28-.97.4-.22.09-.44.17-.66.26-.17.06-.35.12-.53.18-.26.09-.53.17-.8.25-.33.09-.88-.05-1.3,0-.29-1.49-.63-1.22-.64-1.3-1.74-9.42-2.7-19.04-2.67-28.63,0-1.07.02-2.14.05-3.22,0-.38.02-.75.03-1.12.48-.1.95-.21,1.41-.32,27.03-7.05,25.9-57.63,44.79-67.03,18.17-9.04,22.1,15.43,31.86,24.96-.81.28-1.9.17-2.1.37-.56.53.8,5.03,2.88,10.94.12.36.26.73.39,1.1.16.46.33.92.49,1.39.71,1.95,1.46,4.02,2.26,6.13.2.52.39,1.04.58,1.56h0c.02.07.04.12.07.16.2.52.39,1.05.58,1.58.43,1.16.88,2.32,1.31,3.46.44,1.15.87,2.28,1.28,3.37.31.83.62,1.63.92,2.42.11.29.22.57.33.85.28.75.56,1.48.81,2.17.08.24.17.48.26.71.17.45.34.89.49,1.31.15.42.3.82.44,1.21.07.2.14.39.2.58.14.37.27.73.39,1.07.3.85.53,1.58.7,2.13.07.21,1.74,2.2,1.78,2.36Z"/>
  <path class="cls-11" d="M146.29,247.31h0c-.2.36-.44,2.24-.65,2.59-13.73,23.94-29.82,42.89-60.77,36.21-7.01-8.04-12.38-16.45-17.46-25.86,27.92,2.4,46.5-8.94,65.95-28.45l12.93,15.51Z"/>
  <path class="cls-23" d="M151.12,257.67s0,0,0,0c0,0,0,0,0,0,0,0,0,0,0-.01,0-.02-.02-.04-.03-.05,0-.02-.02-.03-.03-.05,0-.02-.02-.04-.03-.06-.02-.05-.04-.1-.06-.15,0-.03-.02-.05-.03-.08,0,0,0,0,0,0h0s0-.01,0-.02c0-.01-.01-.02-.02-.04-.02-.05-.05-.1-.07-.15-.03-.05-.05-.1-.08-.15-.03-.05-.05-.1-.08-.15-.01-.02-.02-.04-.04-.07-.01-.02-.03-.04-.04-.06-.03-.04-.05-.09-.07-.13,0,0,0,0,0,0,0,0,0-.01,0,0,0,0,0,0,0,0,0,0,0,0,0,0,0-.01,0-.02-.01-.03,0-.01-.01-.02-.02-.03,0,0,0,0,0-.01,0,0,0,0,0,0,0,0,0,0,0,0,0,0,0,0,0,0-.01-.02-.01-.04,0-.05l-4.82-6.42c-13.73,23.94-29.82,42.88-60.77,36.21,2.67,3.06,5.47,5.62,8.4,8.4,28.69,2.79,43.89-15.09,57.86-36.83,0,0,0,0,0-.01Z"/>
  <path class="cls-4" d="M132.04,227.77c-.29-.77-.55-1.78-.76-2.57-.16-.6-.63-1.57-.98-2.09-13.6,23.63-39.33,32.66-66.05,30.52,1.08,2.15,2.12,4.33,3.23,6.46,28.19,3.16,49.55-9.07,66.38-28.98-.96-1.19-1.27-1.92-1.8-3.35Z"/>
  <path class="cls-3" d="M139.17,223.39c-1.17-1.76-3.05-4.03-4.27-5.76-1.59,1.54-3.23,3.86-4.67,5.64.25,1.15,1.07,2.69,1.52,4.02.5,1.48,1.17,2.95,2.15,4.18,1.8-2.16,3.56-4.42,5.27-6.78-.11-.26.03-.64.02-.94.01-.16.02-.25-.02-.36Z"/>
  <path class="cls-10" d="M228.4,197.53c-3.3,8.14-6.92,19.65-10.35,19.4.24,3.09,4.69,5.09,5.17,8.4h.65c2.13-4.93,6.79-11.36,9.7-18.1-1.3-3.17-3.68-6.62-5.17-9.7Z"/>
  <path class="cls-27" d="M228.5,197.73c1.4,3.01,3.66,6.41,5.04,9.43,1.35-3.3,3.24-6.21,3.49-9.5-.9-1.5-3.81-6.72-4.84-8.53-1.2,1.32-2.62,5.4-3.87,8.41.07.03.14.11.18.2Z"/>
  <path class="cls-10" d="M242.63,220.17c.74-1.41,1.55-2.74,2.49-4.04.54-.74,1.07-1.49,1.62-2.22.34-.45.81-.89,1.14-1.39-.03-.04-.06-.08-.08-.12-3.82-5.36-7.03-8.73-10.43-14.39l-3.79,9.21c2.56,4.62,5.99,8.67,9.05,12.93,0,0,0,0,0,0Z"/>
  <path class="cls-20" d="M247.88,212.53c-.25.32-.65.77-.9,1.09-.58.73-1.11,1.47-1.65,2.23-.56.78-1.12,1.6-1.62,2.42-.43.7-.71,1.18-1.08,1.91,1.28,2.07,2.75,6.92,5.17,8.11.2-.9,4.05-6.62,4.52-8.12-.94-2.37-2.96-5.5-4.44-7.64Z"/>
  <path class="cls-7" d="M145.78,201.28c1.08,2.68,2.3,5.66,2.96,8.51,1.18-2.12,2.82-8.12,4.01-10.32-.74-2.39-2.59-7.29-3.88-10.02-1.05,2.34-4.08,5.71-4.95,8.17.04.03,1.83,3.61,1.86,3.67Z"/>
  <path class="cls-8" d="M147.76,205.59c-.38-1.51-3.25-6.63-3.65-8.12-.42.57-1.44,3.58-1.74,4.2-1.62,3.3-5.74,14.1-7.47,15.95,1.07,2.39,3.14,4.27,4.53,6.47,3.73-4.69,6.71-9.55,9.55-14.6-.53-1.25-.81-2.61-1.22-3.9Z"/>
  <path class="cls-23" d="M277.54,246.02c-.05.65.3-.33-.01.09.28-.41-.08.59.01-.09-9.57-4.71-20.13-16.15-24.57-25.86h-.64c-.67,2.18-4.49,6.63-4.67,8.24,3.65,4.38,18.74,19.26,24.71,22.15.76-.64-.67.26.12-.1-.84.41.55-.47-.12.1,14.5,7,21.88,7,37.83,7.11,1.73,0,1.67.61,2.91,1.29,1.27-2.81,2.17-5.54,3.24-8.4-12.75,1.47-27.17,1.19-38.79-4.52Z"/>
  <path class="cls-9" d="M245.83,225.68c-.09.42,1.87,2.48,1.96,2.89l-11.64,18.75h-.65c.09-1.81-2.88-5.77-3.88-7.76-.21-.42-.43-.88-.65-1.29l11.64-18.1c1.59,2.21,1.54,2.37,3.21,5.52Z"/>
  <path class="cls-11" d="M228.4,197.54c-2.61,5.86-4.52,12.18-7.76,17.78-.61,1.06-.86,1.43-1.94,3.56-5.72-9.14-17.54-30.8-30.06-29.1-9.47,1.29-21.27,21.44-26.18,29.1-3.14-5.74-7.02-11.48-9.7-17.46-.19-.41.18-1.52,0-1.94,7.15-10.83,23.27-66.23,35.24-68.53,1.67-.32,4.21-.04,5.82.65,10.98,4.67,26.89,54.83,34.59,65.95Z"/>
  <path class="cls-6" d="M235.51,247.32c-.11,2.11-3.72,5.48-3.88,6.47-.92-.75-5.1-6.68-5.17-7.11-.06-.36-.08-.95,0-1.29.09-.38,4.3-5.18,5.17-5.82,1,1.98,3.97,5.94,3.88,7.76Z"/>
  <path class="cls-4" d="M132.71,213.05c.52.65,1.75,3.08,2.2,4.57-1.33,1.28-3.81,4.45-4.78,5.77-7.18-8.05-15.81-28.48-28.77-25.86-11.19,2.26-26.88,39.52-43,40.73-.78-2.56-2.65-6.06-1.29-8.4,31.16-9.25,31.81-77.62,75.64-16.81Z"/>
  <path class="cls-5" d="M150.11,241.5c.19.31-.13-.32.06,0-1.74,1.55-3.41,6.41-4.53,8.4l-12.28-18.1c1.88-2.4,3.24-5.34,5.82-7.11,3.14,4.79,8.07,12.11,10.94,16.81Z"/>
  <path class="cls-27" d="M155.99,248.29c.18.33-.14-.05-.32.3-.2.38-4.12,9.12-4.54,9.08l-5.49-7.78c.2-.35.91-2.05,1.09-2.41,1.03-1.99,1.75-4.25,3.43-5.99.85,1.44,5.31,5.85,5.83,6.79Z"/>
  <path class="cls-9" d="M231.63,253.78c-.93-.75-5.1-6.68-5.17-7.11-5.75,8.8-10.8,17.86-16.81,26.51-4.36,6.26-8.3,16.1-17.46,16.81-.21.02-.43,0-.65,0-.86-.02-2.37-.63-3.23-.65-15.62-7.34-22.39-28.5-32.98-41.38-1.09,2.04-3.64,7.28-4.8,8.38.2.44.59.94.65,1.38,8.69,11.67,20.46,37,36.33,39.82h0s.05,0,.07,0c.46.08.91.15,1.37.19v-.09c.96.06,2.07.11,2.59.09,20.03-.9,30.21-29.24,40.09-43.32,0-.2-.03-.45,0-.65Z"/>
  <path class="cls-5" d="M130.12,223.4c-.14.19-1.04,3.08-1.94,4.2-16.61,20.87-37.45,28.33-64.01,26.18-.6-1.27-1.41-2.67-1.94-3.88-1.27-3.9-2.68-7.72-3.88-11.64,16.11-1.21,31.81-38.47,43-40.73,12.96-2.62,21.59,17.81,28.77,25.86Z"/>
  <path class="cls-28" d="M157.93,226.63c-2.62,4.24-4.72,10.96-7.79,14.9-2.87-4.7-7.82-12.05-10.96-16.84-.13-.2.13-1.1,0-1.29,3.12-4.7,6.3-11.59,9.05-16.5l9.7,19.73Z"/>
  <path class="cls-23" d="M226.46,245.38c-2.69-3.69-5.46-7.7-7.76-11.64-7.01,8.75-13.51,21.27-25.43,23.11-.31.09-.42.25-1.08.17-1.28-.05-2.6.08-3.88,0-.21-.01-.44.03-.65,0-10.38-1.67-18.89-13.92-25.21-21.33-2.4,4.05-4.47,8.38-7.11,12.28.05.15.16.36.33.63,10.59,12.89,17.03,33.41,32.64,40.74l1.04.39c.9.24,1.34.24,2.2.25.21,0,.44.02.65,0,9.15-.71,13.1-10.55,17.46-16.81,6.02-8.65,11.06-17.71,16.81-26.51-.06-.36-.08-.95,0-1.29Z"/>
  <path class="cls-23" d="M218.05,216.93c.05.09.27,1.34.65,1.94.13,1.84-4.42,6.08-4.53,6.46-6.8-5.1-15.21-28.63-24.89-26.51-5.08,1.11-19,24.18-21.66,29.74-1.54-2.43-3.8-5.3-5.17-7.76-.19-.33.19-1.6,0-1.94,4.92-7.65,16.72-27.8,26.18-29.1,12.53-1.71,23.69,18.01,29.42,27.15Z"/>
  <path class="cls-18" d="M242.62,220.16l-11.64,18.1c-1.42-2.7-7.23-10.53-7.11-12.93.09-1.84,8.37-14.86,9.7-18.1,2.56,4.62,5.99,8.67,9.05,12.93Z"/>
  <path class="cls-22" d="M230.98,238.27c.22.42.43.87.65,1.29-.87.64-5.09,5.44-5.17,5.82-2.69-3.69-5.46-7.7-7.76-11.64-.13-.22.13-1.07,0-1.29l4.52-7.11h.65c-.12,2.4,5.69,10.23,7.11,12.93Z"/>
  <path class="cls-27" d="M223.23,225.34l-4.53,7.11c-.48-.83-4.29-4.18-4.53-5.17-.09-.4-.1-1.58,0-1.94.1-.38,4.65-4.63,4.53-6.46,1.21,1.91,4.15,3.83,4.53,6.46Z"/>
  <path class="cls-1" d="M162.45,218.87c.19.34-.19,1.6,0,1.94-2.23,1.28-3.25,3.76-4.52,5.82l-8.85-17.84c1.09-1.95,2.39-6.3,3.68-9.32,2.68,5.98,6.56,13.66,9.7,19.4Z"/>
  <path class="cls-13" d="M160.76,231.58c-.46-.89-1.1-1.92-1.54-2.82-.31-.62-.85-1.52-1.36-2.02-2.42,4.08-5.21,9.39-5.17,9.33-.13.33-2.7,5.11-2.51,5.43.85,1.44,5.26,6.14,5.45,7.2,2.53-3.74,4.56-9.12,6.83-13.02-.46-1.55-.96-2.69-1.69-4.1Z"/>
  <path class="cls-27" d="M167.62,228.57c-1.54-2.43-3.8-5.3-5.17-7.76-2.23,1.28-3.25,3.76-4.53,5.82-.02.04-.05.08-.07.12.56.49.93,1.15,1.26,1.82.45.9.97,1.74,1.44,2.62.73,1.37,1.15,3.13,1.9,4.49,1.11-2.1,2.78-3.64,5.17-5.82-.13-.2.13-1.09,0-1.29Z"/>
  <path class="cls-10" d="M218.7,232.45c-.48-.83-4.29-4.18-4.53-5.17-4.71,6.21-13.93,21.2-21.98,22.63-.92.16-3.58.15-4.53,0-6.6-1.07-16.41-15.73-20.04-21.34-1.99,2.33-3.98,5.1-5.17,7.11,6.32,7.41,14.83,19.66,25.21,21.33.21.03.43-.01.65,0,1.28.08,2.6-.05,3.88,0,.68-.02,1.69.07,1.8-.29,11.91-1.84,17.7-14.23,24.71-22.98-.13-.22.13-1.07,0-1.29Z"/>
  <path class="cls-19" d="M214.17,225.34c-.1.36-.09,1.55,0,1.94-4.71,6.21-13.93,21.2-21.98,22.63-.92.16-3.58.15-4.53,0-6.6-1.07-15.93-14.92-19.55-20.52-.13-.2-.36-.61-.49-.81,2.66-5.56,16.58-28.63,21.66-29.74,9.68-2.12,18.1,21.4,24.89,26.51Z"/>
  <path class="cls-4" d="M52.55,195.53c-.1.04,12.64-12.37,14.86-15.43,11.39-15.67,19.02-58.86,41.84-55.74,17.09,5.48,29.93,48.81,39.62,65.09-.98,2.51-.4.7-4.85,8.14-8.93-15.54-18.59-46.59-28.74-59.47-29.11-25.99-22.11,41.85-62.82,62.51"/>
  <path class="cls-2" d="M325.8,201.4c-.28,2.51-.93,8.29-1.13,12.37-48-63.74-42.27-141.06-86.96-15.31-.05.15-.2.1-.27-.04-1.72-3.21-5.47-8.58-5.22-9.08,7.44-14.89,20.95-70.92,44.73-66.07,20.89,10.67,30.77,61.52,48.85,78.13Z"/>
  <path class="cls-26" d="M387.08,197.37c0-44.55-22.77-78.85-59.14-101.77-8.72-5.49-14.28-15.06-13.95-25.35.39-12.2,8.27-23.79,31.11-25.02,11.16-.6,19.15-18.76,2-25.19-20.07-7.53-70.96,5.12-67.31,58.13,0,.04.18-.04.18,0h-56.49v-23.45c0-12.67,3.46-23.04,17.87-27.65,10.37-3.46,31.67-6.33,42.04-6.91V0H103.68v20.16c10.37.58,31.69,5.76,42.06,9.8,14.39,5.76,17.85,14.97,17.85,27.65l-3.06,20.56h-53.68C110.5,25.16,59.61,12.51,39.54,20.04c-17.15,6.43-9.16,24.59,2,25.19,22.73,1.22,30.65,12.71,31.1,24.85.39,10.28-5.14,19.84-13.84,25.33C22.56,118.28,0,152.6,0,197.37c0,77.74,71.7,128.61,163.59,138.7v10.69c0,12.67-4.03,22.46-17.85,27.65-7.5,2.3-31.69,4.03-42.06,4.61v20.15h179.72v-20.15c-10.37-.58-35.13-4.61-42.04-7.5-13.26-6.33-17.87-15.54-17.87-28.21v-7.27c91.73-10.17,163.59-60.73,163.59-138.67ZM193.31,320.2c-88.17-1.43-123.15-54.76-125.85-113.15-.12-2.48-.18-4.97-.18-7.47,0-29.02-.68-50.74,21.18-73.08,16.14-16.49,18.39-31.26,18.39-31.26h53.68s31,.39,62.7,0c17.36-.21,57.73,0,57.73,0,0,0-1.83,14.02,8.62,28.95,16.06,22.96,29.75,45.98,29.75,75.38,0,2.47-.06,4.93-.18,7.38-2.66,58.42-37.62,111.81-125.84,113.24Z"/>
</svg>