<svg width="800" height="800" viewBox="0 0 800 800" fill="none" xmlns="http://www.w3.org/2000/svg">
<g filter="url(#filter0_d_198_2)">
<path fill-rule="evenodd" clip-rule="evenodd" d="M46.7661 592.111C45.1549 601.306 45.9879 607.049 50.194 612.696C54.4002 618.344 65.8359 621.15 77.6179 619.558C89.3998 617.966 95.0252 616.271 98.1858 605.835C101.346 595.398 235.877 254.654 235.877 254.654C239.347 245.861 244.979 245.861 248.479 254.716L300.173 385.528C304.348 396.085 316.97 404.71 328.316 404.796L605.527 406.844C605.527 406.844 695.443 589.641 701.486 600.201C707.533 610.765 718.42 618.127 726.294 618.179C734.169 618.234 743.949 609.931 748.755 605.835C753.561 601.738 758.627 592.701 754.448 582.422C750.273 572.147 652.901 380.327 647.091 369.736C641.281 359.141 633.862 351.95 619.239 351.95C604.615 351.95 355.706 350.859 355.706 350.859C348.14 350.825 339.91 345.057 337.298 337.901C337.298 337.901 294.78 221.632 290.276 207.853C285.772 194.075 266.582 181 242.161 181C217.74 181 201.32 189.653 194.169 207.853C187.018 226.054 48.3772 582.916 46.7661 592.111Z" fill="black"/>
<path fill-rule="evenodd" clip-rule="evenodd" d="M46.7661 592.111C45.1549 601.306 45.9879 607.049 50.194 612.696C54.4002 618.344 65.8359 621.15 77.6179 619.558C89.3998 617.966 95.0252 616.271 98.1858 605.835C101.346 595.398 235.877 254.654 235.877 254.654C239.347 245.861 244.979 245.861 248.479 254.716L300.173 385.528C304.348 396.085 316.97 404.71 328.316 404.796L605.527 406.844C605.527 406.844 695.443 589.641 701.486 600.201C707.533 610.765 718.42 618.127 726.294 618.179C734.169 618.234 743.949 609.931 748.755 605.835C753.561 601.738 758.627 592.701 754.448 582.422C750.273 572.147 652.901 380.327 647.091 369.736C641.281 359.141 633.862 351.95 619.239 351.95C604.615 351.95 355.706 350.859 355.706 350.859C348.14 350.825 339.91 345.057 337.298 337.901C337.298 337.901 294.78 221.632 290.276 207.853C285.772 194.075 266.582 181 242.161 181C217.74 181 201.32 189.653 194.169 207.853C187.018 226.054 48.3772 582.916 46.7661 592.111Z" stroke="black" stroke-width="3.125"/>
</g>
<defs>
<filter id="filter0_d_198_2" x="40.4375" y="179.438" width="721.129" height="450.125" filterUnits="userSpaceOnUse" color-interpolation-filters="sRGB">
<feFlood flood-opacity="0" result="BackgroundImageFix"/>
<feColorMatrix in="SourceAlpha" type="matrix" values="0 0 0 0 0 0 0 0 0 0 0 0 0 0 0 0 0 0 127 0" result="hardAlpha"/>
<feOffset dy="4"/>
<feGaussianBlur stdDeviation="2"/>
<feComposite in2="hardAlpha" operator="out"/>
<feColorMatrix type="matrix" values="0 0 0 0 0 0 0 0 0 0 0 0 0 0 0 0 0 0 0.25 0"/>
<feBlend mode="normal" in2="BackgroundImageFix" result="effect1_dropShadow_198_2"/>
<feBlend mode="normal" in="SourceGraphic" in2="effect1_dropShadow_198_2" result="shape"/>
</filter>
</defs>
</svg>
