<svg width="800" height="800" viewBox="0 0 800 800" fill="none" xmlns="http://www.w3.org/2000/svg">
<path fill-rule="evenodd" clip-rule="evenodd" d="M66.6671 483.317C66.6591 481.14 67.0135 478.987 67.7095 476.977C68.4055 474.967 69.4291 473.147 70.7201 471.62C72.0111 470.093 73.5438 468.89 75.2275 468.083C76.9111 467.277 78.7125 466.883 80.5248 466.923L164.917 468.493C172.57 468.633 178.737 476.207 178.691 485.45L177.862 649.963C177.845 652.15 178.19 654.317 178.875 656.343C179.561 658.367 180.574 660.21 181.856 661.763C183.139 663.317 184.665 664.55 186.346 665.39C188.028 666.233 189.831 666.667 191.653 666.667H219.459C223.141 666.663 226.671 664.903 229.273 661.777C231.875 658.65 233.336 654.41 233.334 649.993V83.3417C233.335 81.1497 233.696 78.9793 234.397 76.9547C235.098 74.9303 236.124 73.091 237.417 71.5427C238.71 69.994 240.244 68.7663 241.933 67.9297C243.621 67.0933 245.431 66.664 247.257 66.6667H386.077C387.904 66.6613 389.714 67.0887 391.404 67.9247C393.094 68.7607 394.63 69.9883 395.924 71.538C397.217 73.0873 398.244 74.928 398.944 76.9543C399.644 78.9807 400 81.1527 400 83.346V516.653C399.997 521.073 401.457 525.313 404.06 528.44C406.66 531.57 410.194 533.33 413.877 533.333H441.68C443.507 533.33 445.314 532.897 447 532.053C448.684 531.213 450.214 529.98 451.504 528.43C452.79 526.877 453.814 525.037 454.507 523.01C455.204 520.987 455.56 518.817 455.557 516.627V350.043C455.547 347.86 455.904 345.697 456.6 343.68C457.3 341.667 458.327 339.84 459.62 338.307C460.917 336.773 462.454 335.567 464.144 334.76C465.834 333.95 467.64 333.553 469.46 333.597L552.764 335.153C554.58 335.197 556.384 334.8 558.07 333.993C559.757 333.188 561.294 331.986 562.587 330.458C563.884 328.93 564.91 327.108 565.61 325.098C566.31 323.087 566.67 320.929 566.667 318.75V216.667C566.67 214.475 567.03 212.306 567.734 210.282C568.434 208.259 569.46 206.421 570.754 204.873C572.044 203.325 573.58 202.098 575.267 201.262C576.957 200.426 578.764 199.997 580.59 200H719.41C723.097 199.996 726.634 201.748 729.244 204.871C731.857 207.995 733.327 212.234 733.334 216.658V452.093C733.334 456.507 731.874 460.737 729.274 463.86C726.677 466.983 723.15 468.743 719.474 468.75H693.377C691.55 468.747 689.744 468.31 688.06 467.467C686.377 466.627 684.847 465.393 683.56 463.843C682.274 462.29 681.254 460.45 680.56 458.423C679.864 456.4 679.51 454.23 679.514 452.043V285.458C679.517 283.268 679.16 281.098 678.467 279.073C677.77 277.048 676.75 275.207 675.46 273.656C674.174 272.104 672.64 270.873 670.957 270.031C669.27 269.189 667.464 268.754 665.64 268.75H637.834C634.13 268.763 630.58 270.517 627.944 273.638C625.307 276.758 623.797 280.995 623.737 285.438L622.444 383.313C622.377 387.757 620.86 391.993 618.22 395.113C615.58 398.233 612.024 399.987 608.32 400H525.014C523.187 400 521.377 400.433 519.69 401.273C518.004 402.113 516.47 403.347 515.177 404.897C513.887 406.45 512.864 408.29 512.167 410.317C511.467 412.343 511.11 414.517 511.11 416.71V583.293C511.11 587.723 509.644 591.973 507.034 595.107C504.424 598.24 500.88 600 497.187 600H358.367C356.54 600.007 354.73 599.577 353.04 598.743C351.35 597.907 349.814 596.677 348.52 595.13C347.227 593.58 346.2 591.74 345.504 589.713C344.804 587.687 344.444 585.513 344.444 583.32V150.013C344.447 145.593 342.987 141.353 340.387 138.225C337.784 135.097 334.254 133.338 330.57 133.333H302.764C299.082 133.338 295.552 135.097 292.95 138.224C290.348 141.351 288.887 145.59 288.889 150.008V716.66C288.888 718.85 288.527 721.02 287.826 723.047C287.126 725.07 286.099 726.91 284.806 728.457C283.513 730.007 281.979 731.233 280.29 732.07C278.602 732.907 276.792 733.337 274.966 733.333H136.146C132.454 733.333 128.912 731.573 126.301 728.44C123.69 725.307 122.223 721.057 122.223 716.627V550.04C122.226 547.85 121.87 545.683 121.174 543.657C120.478 541.63 119.457 539.79 118.169 538.24C116.88 536.687 115.35 535.457 113.665 534.613C111.98 533.773 110.173 533.337 108.348 533.333H80.5421C78.7201 533.333 76.9158 532.903 75.2325 532.067C73.5491 531.23 72.0195 530.003 70.7311 528.457C69.4428 526.91 68.4208 525.077 67.7235 523.057C67.0261 521.033 66.6671 518.87 66.6671 516.683V483.317Z" fill="black" stroke="black" stroke-width="21"/>
</svg>
