<svg width="964" height="1000" viewBox="0 0 964 1000" fill="none" xmlns="http://www.w3.org/2000/svg">
<path d="M171.009 1000C76.7235 1000 0 919.916 0 821.5C0 723.085 76.7235 643 171.009 643C265.294 643 342 723.085 342 821.5C342 919.916 265.311 1000 171.009 1000ZM171.009 715.887C115.216 715.887 69.828 763.263 69.828 821.5C69.828 879.737 115.216 927.113 171.009 927.113C226.801 927.113 272.172 879.737 272.172 821.5C272.172 763.263 226.801 715.887 171.009 715.887Z" fill="black"/>
<path d="M811 299C895.5 299 964 232.067 964 149.5C964 66.9334 895.5 0 811 0C726.5 0 658 66.9334 658 149.5C658 232.067 726.5 299 811 299Z" fill="black"/>
<path d="M635.5 323.304L498.5 357.608L520.5 377.108L336 560.608L410.324 639.304L593.824 451.065L615.824 473.304L635.5 323.304Z" fill="black"/>
</svg>
