<svg width="800" height="800" viewBox="0 0 800 800" fill="none" xmlns="http://www.w3.org/2000/svg">
<path fill-rule="evenodd" clip-rule="evenodd" d="M400 147C409.732 147 417.622 154.903 417.622 164.651V216.177L458.024 175.705C464.906 168.812 476.064 168.812 482.946 175.705C489.827 182.598 489.827 193.774 482.946 200.667L417.622 266.102V369.428L506.951 317.766L530.862 228.381C533.381 218.964 543.042 213.376 552.443 215.9C561.843 218.422 567.423 228.101 564.905 237.518L550.114 292.804L594.661 267.041C603.092 262.167 613.867 265.059 618.735 273.502C623.601 281.944 620.713 292.739 612.283 297.614L567.736 323.377L622.929 338.19C632.329 340.714 637.909 350.392 635.391 359.809C632.87 369.226 623.208 374.813 613.808 372.29L524.572 348.339L435.243 400L524.577 451.664L613.813 427.712C623.213 425.189 632.874 430.779 635.395 440.195C637.914 449.612 632.334 459.289 622.933 461.812L567.74 476.627L612.288 502.389C620.718 507.265 623.605 518.058 618.74 526.502C613.871 534.944 603.096 537.837 594.666 532.963L550.119 507.199L564.909 562.485C567.428 571.901 561.848 581.581 552.447 584.104C543.047 586.627 533.386 581.04 530.867 571.623L506.956 482.238L417.622 430.572V533.897L482.946 599.333C489.827 606.227 489.827 617.401 482.946 624.295C476.064 631.188 464.906 631.188 458.024 624.295L417.622 583.824V635.349C417.622 645.097 409.732 653 400 653C390.268 653 382.378 645.097 382.378 635.349V583.824L341.974 624.295C335.092 631.188 323.935 631.188 317.053 624.295C310.172 617.401 310.172 606.227 317.053 599.333L382.378 533.897V430.572L293.044 482.238L269.133 571.623C266.614 581.04 256.952 586.627 247.551 584.104C238.151 581.581 232.572 571.901 235.091 562.485L249.88 507.199L205.332 532.963C196.904 537.837 186.127 534.944 181.261 526.502C176.395 518.058 179.282 507.265 187.711 502.389L232.258 476.627L177.065 461.812C167.665 459.289 162.086 449.612 164.605 440.195C167.124 430.779 176.786 425.189 186.187 427.712L275.422 451.664L364.757 400L275.427 348.339L186.191 372.29C176.791 374.813 167.128 369.226 164.609 359.809C162.091 350.392 167.669 340.714 177.07 338.19L232.263 323.377L187.715 297.614C179.287 292.739 176.399 281.944 181.265 273.502C186.131 265.059 196.908 262.167 205.337 267.041L249.885 292.804L235.095 237.518C232.577 228.101 238.155 218.422 247.556 215.9C256.956 213.376 266.619 218.964 269.138 228.381L293.048 317.766L382.378 369.428V266.102L317.053 200.667C310.172 193.774 310.172 182.598 317.053 175.705C323.935 168.812 335.092 168.812 341.974 175.705L382.378 216.177V164.651C382.378 154.903 390.268 147 400 147Z" fill="black"/>
</svg>
