<svg width="800" height="800" viewBox="0 0 800 800" fill="none" xmlns="http://www.w3.org/2000/svg">
<path fill-rule="evenodd" clip-rule="evenodd" d="M201.431 715.209C200.094 721.981 204.578 727.428 211.512 727.375L591.378 724.444C598.284 724.391 602.878 718.838 601.64 712.038L564.647 509.184C563.406 502.388 559.566 501.706 556.062 507.663L527.45 556.356C523.95 562.316 522.106 572.628 523.347 579.444L538.706 663.913C539.941 670.709 535.356 676.216 528.431 676.216H276.909C270 676.216 265.475 670.731 266.806 663.966L358.906 195.416L447.781 193.884L484.612 332.728C486.384 339.413 490.894 340.184 494.725 334.4L520.95 294.806C524.762 289.047 526.356 279 524.509 272.353L494.522 164.541C490.822 151.238 476.6 140.55 462.841 140.672L339.744 141.763C325.947 141.884 312.594 152.963 309.919 166.488L201.431 715.209Z" fill="black" stroke="black" stroke-width="9"/>
<path fill-rule="evenodd" clip-rule="evenodd" d="M369.112 621.672C365.418 627.5 368.028 632.225 374.946 632.225H413.671C420.59 632.225 429.196 627.462 432.868 621.631L634.587 301.434C638.275 295.588 646.793 289.881 653.575 288.703L683.515 283.494C690.318 282.309 697.553 276.056 699.696 269.444L714.609 223.538C716.743 216.963 714.412 207.806 709.368 203.053L673.531 169.291C668.503 164.55 659.525 163.472 653.531 166.853L616.659 187.65C610.643 191.044 605.328 199.381 604.787 206.256L601.856 243.653C601.315 250.534 597.887 260.834 594.19 266.663L369.112 621.672Z" fill="black" stroke="black" stroke-width="9"/>
</svg>
