<svg width="800" height="800" viewBox="0 0 800 800" fill="none" xmlns="http://www.w3.org/2000/svg">
<path d="M400 123.701C216.605 123.701 66.6699 273.636 66.6699 457.031C66.6699 472.372 79.106 484.808 94.447 484.808C109.788 484.808 122.224 472.372 122.224 457.031C122.224 304.318 247.287 179.257 399.999 179.257C552.711 179.257 677.773 304.319 677.773 457.031C677.773 472.372 690.209 484.808 705.55 484.808C720.891 484.808 733.33 472.372 733.33 457.031C733.33 273.636 583.395 123.701 400 123.701Z" fill="black" stroke="black" stroke-width="24"/>
<path d="M526.122 358.994C526.066 358.938 526.005 358.893 525.949 358.838C493.688 326.661 449.17 306.766 400 306.766C301.492 306.766 221.65 386.609 221.65 485.116C221.65 583.623 301.492 663.466 400 663.466C498.508 663.466 578.35 583.624 578.35 485.116C578.35 435.946 558.456 391.428 526.278 359.167C526.225 359.111 526.178 359.049 526.122 358.994ZM400 612.509C329.635 612.509 272.607 555.481 272.607 485.116C272.607 414.751 329.635 357.722 400 357.722C425.967 357.722 450.112 365.496 470.251 378.833L381.984 467.1C372.034 477.049 372.034 493.182 381.984 503.132C391.934 513.082 408.067 513.082 418.017 503.132L506.283 414.865C519.62 435.004 527.394 459.149 527.394 485.116C527.394 555.481 470.366 612.509 400 612.509Z" fill="black" stroke="black" stroke-width="16"/>
<path d="M94.9602 485V442M94.9602 485L33.1543 433M94.9602 485C94.9602 485 134.222 449.793 157.999 433M708.729 442V485M708.729 485L642.004 433M708.729 485L771.154 433" stroke="black" stroke-width="36" stroke-linecap="round" stroke-linejoin="round"/>
</svg>
