<svg width="800" height="800" viewBox="0 0 800 800" fill="none" xmlns="http://www.w3.org/2000/svg">
<g clip-path="url(#clip0_286_25)">
<path fill-rule="evenodd" clip-rule="evenodd" d="M174.103 0C108.127 0 100 44.8 100 100C100 100 100 644.8 100 700C100 755.2 108.127 800 174.103 800C240.079 800 248.207 755.2 248.207 700V100C248.207 44.8 240.079 0 174.103 0Z" fill="black"/>
<path fill-rule="evenodd" clip-rule="evenodd" d="M625.896 0C559.92 0 551.793 44.8 551.793 100C551.793 100 551.793 644.8 551.793 700C551.793 755.2 559.92 800 625.896 800C691.872 800 700 755.2 700 700V100C700 44.8 691.872 0 625.896 0Z" fill="black"/>
</g>
<defs>
<clipPath id="clip0_286_25">
<rect width="600" height="800" fill="white" transform="translate(100)"/>
</clipPath>
</defs>
</svg>
