<svg width="800" height="800" viewBox="0 0 800 800" fill="none" xmlns="http://www.w3.org/2000/svg">
<path d="M638.911 249.967L528.022 156.195C523.884 152.717 518.966 150.611 513.823 150.114C508.681 149.617 503.517 150.749 498.914 153.382C494.295 155.912 490.409 159.871 487.709 164.796C485.01 169.722 483.608 175.411 483.667 181.201V243.715H178.722C171.37 243.715 164.319 247.009 159.12 252.87C153.921 258.732 151 266.683 151 274.973C151 283.263 153.921 291.213 159.12 297.075C164.319 302.937 171.37 306.23 178.722 306.23H483.667V368.745C483.644 374.526 485.061 380.198 487.756 385.116C490.452 390.034 494.318 394.001 498.914 396.564C503.508 399.233 508.678 400.385 513.828 399.887C518.977 399.389 523.898 397.262 528.022 393.75L638.911 299.979C642.354 297.067 645.149 293.292 647.073 288.951C648.998 284.611 650 279.825 650 274.973C650 270.12 648.998 265.334 647.073 260.994C645.149 256.654 642.354 252.878 638.911 249.967Z" fill="black"/>
<path d="M162.089 499.967L272.978 406.195C277.116 402.717 282.034 400.611 287.177 400.114C292.319 399.617 297.483 400.749 302.086 403.382C306.705 405.912 310.591 409.871 313.291 414.796C315.99 419.722 317.392 425.411 317.333 431.201V493.715H622.278C629.63 493.715 636.681 497.009 641.88 502.87C647.079 508.732 650 516.683 650 524.973C650 533.263 647.079 541.213 641.88 547.075C636.681 552.937 629.63 556.23 622.278 556.23H317.333V618.745C317.356 624.526 315.939 630.198 313.244 635.116C310.548 640.034 306.682 644.001 302.086 646.564C297.492 649.233 292.322 650.385 287.172 649.887C282.023 649.389 277.102 647.262 272.978 643.75L162.089 549.979C158.646 547.067 155.851 543.292 153.927 538.951C152.002 534.611 151 529.825 151 524.973C151 520.12 152.002 515.334 153.927 510.994C155.851 506.654 158.646 502.878 162.089 499.967Z" fill="black"/>
</svg>
