<svg width="24" height="24" viewBox="0 0 24 24" fill="none" xmlns="http://www.w3.org/2000/svg">
<path fill-rule="evenodd" clip-rule="evenodd" d="M2 14.4995C1.99976 14.4342 2.01039 14.3696 2.03127 14.3093C2.05215 14.249 2.08286 14.1944 2.12159 14.1486C2.16032 14.1028 2.2063 14.0667 2.25681 14.0425C2.30732 14.0183 2.36136 14.0065 2.41573 14.0077L4.9475 14.0548C5.17709 14.059 5.36209 14.2862 5.36073 14.5635L5.33584 19.4989C5.33534 19.5645 5.34568 19.6295 5.36625 19.6903C5.38682 19.751 5.41721 19.8063 5.45568 19.8529C5.49415 19.8995 5.53993 19.9365 5.59037 19.9617C5.64082 19.987 5.69493 20 5.74959 20H6.58375C6.69422 19.9999 6.80013 19.9471 6.87819 19.8533C6.95624 19.7595 7.00006 19.6323 7 19.4998V2.50025C7.00004 2.43449 7.01088 2.36938 7.0319 2.30864C7.05292 2.24791 7.0837 2.19273 7.12249 2.14628C7.16128 2.09982 7.20732 2.06299 7.25797 2.03789C7.30863 2.0128 7.36291 1.99992 7.41771 2H11.5823C11.6371 1.99984 11.6914 2.01266 11.7421 2.03774C11.7928 2.06282 11.8389 2.09965 11.8777 2.14614C11.9165 2.19262 11.9473 2.24784 11.9683 2.30863C11.9893 2.36942 12 2.43458 12 2.50038V15.4996C11.9999 15.6322 12.0437 15.7594 12.1218 15.8532C12.1998 15.9471 12.3058 15.9999 12.4163 16H13.2504C13.3052 15.9999 13.3594 15.9869 13.41 15.9616C13.4605 15.9364 13.5064 15.8994 13.5451 15.8529C13.5837 15.8063 13.6144 15.7511 13.6352 15.6903C13.6561 15.6296 13.6668 15.5645 13.6667 15.4988V10.5013C13.6664 10.4358 13.6771 10.3709 13.698 10.3104C13.719 10.25 13.7498 10.1952 13.7886 10.1492C13.8275 10.1032 13.8736 10.067 13.9243 10.0428C13.975 10.0185 14.0292 10.0066 14.0838 10.0079L16.5829 10.0546C16.6374 10.0559 16.6915 10.044 16.7421 10.0198C16.7927 9.99565 16.8388 9.95958 16.8776 9.91375C16.9165 9.86791 16.9473 9.81324 16.9683 9.75293C16.9893 9.69261 17.0001 9.62787 17 9.5625V6.5C17.0001 6.43426 17.0109 6.36918 17.032 6.30847C17.053 6.24776 17.0838 6.19262 17.1226 6.14619C17.1613 6.09976 17.2074 6.06295 17.258 6.03787C17.3087 6.01279 17.3629 5.99992 17.4177 6H21.5823C21.6929 5.99987 21.799 6.05243 21.8773 6.14614C21.9557 6.23984 21.9998 6.36703 22 6.49975V13.5628C22 13.6952 21.9562 13.8221 21.8782 13.9158C21.8003 14.0095 21.6945 14.0623 21.5842 14.0625H20.8013C20.7465 14.0624 20.6923 14.0493 20.6418 14.024C20.5913 13.9988 20.5454 13.9618 20.5068 13.9153C20.4682 13.8687 20.4376 13.8135 20.4168 13.7527C20.3959 13.692 20.3853 13.6269 20.3854 13.5613V8.56375C20.3855 8.49804 20.3748 8.43295 20.354 8.3722C20.3331 8.31145 20.3025 8.25622 20.2638 8.20968C20.2252 8.16313 20.1792 8.12618 20.1287 8.10092C20.0781 8.07567 20.0239 8.06262 19.9692 8.0625H19.135C19.0239 8.06288 18.9174 8.11552 18.8383 8.20914C18.7592 8.30275 18.7139 8.42985 18.7121 8.56313L18.6733 11.4994C18.6713 11.6327 18.6258 11.7598 18.5466 11.8534C18.4674 11.947 18.3607 11.9996 18.2496 12H15.7504C15.6956 12 15.6413 12.013 15.5907 12.0382C15.5401 12.0634 15.4941 12.1004 15.4553 12.1469C15.4166 12.1935 15.3859 12.2487 15.365 12.3095C15.344 12.3703 15.3333 12.4355 15.3333 12.5013V17.4988C15.3333 17.6317 15.2893 17.7592 15.211 17.8532C15.1327 17.9472 15.0264 18 14.9156 18H10.751C10.6962 18.0002 10.6419 17.9873 10.5912 17.9623C10.5405 17.9372 10.4944 17.9003 10.4556 17.8539C10.4168 17.8074 10.386 17.7522 10.3651 17.6914C10.3441 17.6306 10.3333 17.5654 10.3333 17.4996V4.50038C10.3334 4.36779 10.2896 4.24059 10.2116 4.14676C10.1335 4.05292 10.0276 4.00013 9.91709 4H9.08292C8.97245 4.00013 8.86654 4.0529 8.78849 4.14671C8.71043 4.24052 8.66661 4.36769 8.66667 4.50025V21.4998C8.66663 21.5655 8.65579 21.6306 8.63477 21.6914C8.61376 21.7521 8.58297 21.8073 8.54418 21.8537C8.50539 21.9002 8.45935 21.937 8.4087 21.9621C8.35804 21.9872 8.30376 22.0001 8.24896 22H4.08438C3.9736 22 3.86735 21.9472 3.78901 21.8532C3.71068 21.7592 3.66667 21.6317 3.66667 21.4988V16.5012C3.66677 16.4355 3.65608 16.3705 3.63521 16.3097C3.61434 16.2489 3.58371 16.1937 3.54506 16.1472C3.5064 16.1006 3.46049 16.0637 3.40994 16.0384C3.35938 16.0132 3.30518 16.0001 3.25042 16H2.41625C2.36159 16 2.30746 15.9871 2.25696 15.962C2.20646 15.9369 2.16057 15.9001 2.12192 15.8537C2.08327 15.8073 2.05261 15.7523 2.03169 15.6917C2.01077 15.631 2 15.5661 2 15.5005V14.4995Z" fill="black"/>
</svg>
