<svg width="800" height="800" viewBox="0 0 800 800" fill="none" xmlns="http://www.w3.org/2000/svg">
<path fill-rule="evenodd" clip-rule="evenodd" d="M368.75 618.75C368.75 627.038 372.042 634.987 377.903 640.847C383.763 646.708 391.712 650 400 650C408.288 650 416.237 646.708 422.097 640.847C427.958 634.987 431.25 627.038 431.25 618.75V431.25H618.75C627.038 431.25 634.987 427.958 640.847 422.097C646.708 416.237 650 408.288 650 400C650 391.712 646.708 383.763 640.847 377.903C634.987 372.042 627.038 368.75 618.75 368.75H431.25V181.25C431.25 172.962 427.958 165.013 422.097 159.153C416.237 153.292 408.288 150 400 150C391.712 150 383.763 153.292 377.903 159.153C372.042 165.013 368.75 172.962 368.75 181.25V368.75H181.25C172.962 368.75 165.013 372.042 159.153 377.903C153.292 383.763 150 391.712 150 400C150 408.288 153.292 416.237 159.153 422.097C165.013 427.958 172.962 431.25 181.25 431.25H368.75V618.75Z" fill="black" stroke="black" stroke-width="19"/>
</svg>
