<svg width="800" height="800" viewBox="0 0 800 800" fill="none" xmlns="http://www.w3.org/2000/svg">
<g clip-path="url(#clip0_146_20)">
<path fill-rule="evenodd" clip-rule="evenodd" d="M574.75 633C582.474 640.724 592.951 645.064 603.875 645.064C614.799 645.064 625.276 640.724 633 633C640.724 625.276 645.064 614.799 645.064 603.875C645.064 592.951 640.724 582.474 633 574.75L458.25 400L633 225.25C640.724 217.526 645.064 207.049 645.064 196.125C645.064 185.201 640.724 174.724 633 167C625.276 159.276 614.799 154.936 603.875 154.936C592.951 154.936 582.474 159.276 574.75 167L400 341.75L225.25 167C217.526 159.276 207.049 154.936 196.125 154.936C185.201 154.936 174.724 159.276 167 167C159.276 174.724 154.936 185.201 154.936 196.125C154.936 207.049 159.276 217.526 167 225.25L341.75 400L167 574.75C159.276 582.474 154.936 592.951 154.936 603.875C154.936 614.799 159.276 625.276 167 633C174.724 640.724 185.201 645.064 196.125 645.064C207.049 645.064 217.526 640.724 225.25 633L400 458.25L574.75 633Z" fill="black"/>
</g>
<defs>
<clipPath id="clip0_146_20">
<rect width="800" height="800" fill="white"/>
</clipPath>
</defs>
</svg>
